<svg id="Layer_3" enable-background="new 0 0 64 64" height="512" viewBox="0 0 64 64" width="512" xmlns="http://www.w3.org/2000/svg"><g><g><path d="m13 22h38c1.105 0 2 .895 2 2v24c0 1.105-.895 2-2 2h-38c-1.105 0-2-.895-2-2v-24c0-1.105.895-2 2-2z" fill="#8babbb"/></g><g><path d="m50 48v-24c0-1.105-.895-2-2-2h-35c-1.105 0-2 .895-2 2v24c0 1.105.895 2 2 2h35c1.105 0 2-.895 2-2z" fill="#b9e4f9"/></g><g><circle cx="50" cy="18" fill="#71995f" r="12"/></g><g><ellipse cx="48.5" cy="18" fill="#96cc7f" rx="10.5" ry="11.896"/></g><g><circle cx="45" cy="15" fill="#b3b6c2" r="2"/></g><g><circle cx="55" cy="21" fill="#b3b6c2" r="2"/></g><g><path d="m43 62h-22v-2c0-1.105.895-2 2-2h18c1.105 0 2 .895 2 2z" fill="#54585e"/></g><g><path d="m38 58h-15c-1.105 0-2 .895-2 2v2h19v-2c0-1.105-.895-2-2-2z" fill="#7e848d"/></g><g><path d="m29 50h6v8h-6z" fill="#a8b0bc"/></g><g><path d="m51 50h-38c-1.105 0-2-.895-2-2v-6h42v6c0 1.105-.895 2-2 2z" fill="#54585e"/></g><g><path d="m50 48v-6h-39v6c0 1.105.895 2 2 2h35c1.105 0 2-.895 2-2z" fill="#7e848d"/></g><g><circle cx="14" cy="14" fill="#833835" r="12"/></g><g><ellipse cx="12.5" cy="14" fill="#af4a47" rx="10.5" ry="11.896"/></g><g><path d="m51 51h-38c-1.654 0-3-1.346-3-3v-22h2v22c0 .552.448 1 1 1h38c.552 0 1-.448 1-1v-18h2v18c0 1.654-1.346 3-3 3z"/></g><g><path d="m11 41h42v2h-42z"/></g><g><path d="m43 63h-22c-.553 0-1-.447-1-1v-2c0-1.654 1.346-3 3-3h18c1.654 0 3 1.346 3 3v2c0 .553-.447 1-1 1zm-21-2h20v-1c0-.552-.448-1-1-1h-18c-.552 0-1 .448-1 1z"/></g><g><path d="m14 21h-3v-2h3c.552 0 1-.448 1-1v-2c0-.552-.448-1-1-1-1.654 0-3-1.346-3-3v-2c0-1.654 1.346-3 3-3h3v2h-3c-.552 0-1 .448-1 1v2c0 .552.448 1 1 1 1.654 0 3 1.346 3 3v2c0 1.654-1.346 3-3 3z"/></g><g><path d="m13 5h2v3h-2z"/></g><g><path d="m13 20h2v3h-2z"/></g><g><path d="m14 27c-7.168 0-13-5.832-13-13s5.832-13 13-13 13 5.832 13 13-5.832 13-13 13zm0-24c-6.065 0-11 4.935-11 11s4.935 11 11 11 11-4.935 11-11-4.935-11-11-11z"/></g><g><path d="m19 15h2v2h-2z"/></g><g><path d="m19 11h2v2h-2z"/></g><g><path d="m7 15h2v2h-2z"/></g><g><path d="m7 11h2v2h-2z"/></g><g><path d="m42.929 17h14.142v2h-14.142z" transform="matrix(.707 -.707 .707 .707 1.917 40.627)"/></g><g><path d="m45 18c-1.654 0-3-1.346-3-3s1.346-3 3-3 3 1.346 3 3-1.346 3-3 3zm0-4c-.552 0-1 .448-1 1s.448 1 1 1 1-.448 1-1-.448-1-1-1z"/></g><g><path d="m55 24c-1.654 0-3-1.346-3-3s1.346-3 3-3 3 1.346 3 3-1.346 3-3 3zm0-4c-.552 0-1 .448-1 1s.448 1 1 1 1-.448 1-1-.448-1-1-1z"/></g><g><path d="m50 31c-7.168 0-13-5.832-13-13s5.832-13 13-13 13 5.832 13 13-5.832 13-13 13zm0-24c-6.065 0-11 4.935-11 11s4.935 11 11 11 11-4.935 11-11-4.935-11-11-11z"/></g><g><path d="m23 21h15v2h-15z"/></g><g><path d="m48 45h2v2h-2z"/></g><g><path d="m14 45h2v2h-2z"/></g><g><path d="m18 45h2v2h-2z"/></g><g><path d="m22 45h2v2h-2z"/></g><g><path d="m24 35h-2c-.553 0-1-.447-1-1v-4c0-.553.447-1 1-1h2c1.654 0 3 1.346 3 3s-1.346 3-3 3zm-1-2h1c.552 0 1-.448 1-1s-.448-1-1-1h-1z"/></g><g><path d="m24 39h-2c-.553 0-1-.447-1-1v-4c0-.553.447-1 1-1h2c1.654 0 3 1.346 3 3s-1.346 3-3 3zm-1-2h1c.552 0 1-.448 1-1s-.448-1-1-1h-1z"/></g><g><path d="m32 39c-1.654 0-3-1.346-3-3v-7h2v7c0 .552.448 1 1 1s1-.448 1-1v-7h2v7c0 1.654-1.346 3-3 3z"/></g><g><path d="m40 35c-1.654 0-3-1.346-3-3v-3h2v3c0 .552.448 1 1 1s1-.448 1-1v-3h2v3c0 1.654-1.346 3-3 3z"/></g><g><path d="m39 34h2v5h-2z"/></g><g><path d="m34 50h2v8h-2z"/></g><g><path d="m28 50h2v8h-2z"/></g></g></svg>